<svg xmlns="http://www.w3.org/2000/svg" xmlns:xlink="http://www.w3.org/1999/xlink" width="3204" height="575" viewBox="0 0 3204 575">
  <defs>
    <style>
      .cls-1 {
        filter: url(#filter);
      }

      .cls-2, .cls-3 {
        fill: #900;
      }

      .cls-2 {
        fill-rule: evenodd;
      }

      .cls-3 {
        font-size: 40px;
        text-anchor: middle;
        font-family: "Nolan Next";
      }
    </style>
    <filter id="filter" filterUnits="userSpaceOnUse">
      <feFlood result="flood" flood-color="#fff"/>
      <feComposite result="composite" operator="in" in2="SourceGraphic"/>
      <feBlend result="blend" in2="SourceGraphic"/>
    </filter>
  </defs>
  <g id="Agrupar_1_copiar" data-name="Agrupar 1 copiar" class="cls-1">
    <path id="R" class="cls-2" d="M52,0H532a52,52,0,0,1,52,52V523a52,52,0,0,1-52,52H52A52,52,0,0,1,0,523V52A52,52,0,0,1,52,0Zm0,0H532a52,52,0,0,1,52,52V523a52,52,0,0,1-52,52H52A52,52,0,0,1,0,523V52A52,52,0,0,1,52,0Zm0,0H532a52,52,0,0,1,52,52V523a52,52,0,0,1-52,52H52A52,52,0,0,1,0,523V52A52,52,0,0,1,52,0Zm83.47,478.486H318.591c82.8,0,124.735-30.255,124.735-101.911,0-49.894-22.823-81.211-67.94-94.48,34.5-12.208,52.017-38.748,52.017-79.618,0-64.226-39.279-98.727-113.589-98.727H135.47V478.486ZM304.791,172.753c27.6,0,41.4,13.8,41.4,40.87s-14.331,40.34-42.994,40.34H216.68v-81.21h88.111Zm54.14,192.675c0,29.194-13.27,42.994-47.24,42.994H216.68V318.188h92.357C342.477,318.188,358.931,334.112,358.931,365.428ZM705,0h480a52,52,0,0,1,52,52V523a52,52,0,0,1-52,52H705a52,52,0,0,1-52-52V52A52,52,0,0,1,705,0Zm0,0h480a52,52,0,0,1,52,52V523a52,52,0,0,1-52,52H705a52,52,0,0,1-52-52V52A52,52,0,0,1,705,0Zm0,0h480a52,52,0,0,1,52,52V523a52,52,0,0,1-52,52H705a52,52,0,0,1-52-52V52A52,52,0,0,1,705,0ZM889.742,103.75H807.47V478.486h263.27V407.361h-181V103.75ZM1354,0h480a52,52,0,0,1,52,52V523a52,52,0,0,1-52,52H1354a52,52,0,0,1-52-52V52A52,52,0,0,1,1354,0Zm0,0h480a52,52,0,0,1,52,52V523a52,52,0,0,1-52,52H1354a52,52,0,0,1-52-52V52A52,52,0,0,1,1354,0Zm0,0h480a52,52,0,0,1,52,52V523a52,52,0,0,1-52,52H1354a52,52,0,0,1-52-52V52A52,52,0,0,1,1354,0Zm104.47,103.75V478.486h280.79V407.361H1540.74V322.435h179.94V250.778H1540.74V174.345H1736.6V103.75H1458.47ZM2007,0h480a52,52,0,0,1,52,52V523a52,52,0,0,1-52,52H2007a52,52,0,0,1-52-52V52A52,52,0,0,1,2007,0Zm0,0h480a52,52,0,0,1,52,52V523a52,52,0,0,1-52,52H2007a52,52,0,0,1-52-52V52A52,52,0,0,1,2007,0Zm0,0h480a52,52,0,0,1,52,52V523a52,52,0,0,1-52,52H2007a52,52,0,0,1-52-52V52A52,52,0,0,1,2007,0Zm324.22,354.813L2168.27,103.75h-82.8V478.486h79.09V226.362L2329.1,478.486h81.21V103.75h-79.09V354.813ZM2672,0h480a52,52,0,0,1,52,52V523a52,52,0,0,1-52,52H2672a52,52,0,0,1-52-52V52A52,52,0,0,1,2672,0Zm0,0h480a52,52,0,0,1,52,52V523a52,52,0,0,1-52,52H2672a52,52,0,0,1-52-52V52A52,52,0,0,1,2672,0Zm0,0h480a52,52,0,0,1,52,52V523a52,52,0,0,1-52,52H2672a52,52,0,0,1-52-52V52A52,52,0,0,1,2672,0Zm78.28,102.75V477.486h151.31c58.75,0,104.2-16.985,136.9-50.956,32.71-33.439,48.78-79.087,48.78-135.881s-16.07-102.442-48.78-136.943c-32.7-33.971-78.15-50.956-136.9-50.956H2750.28Zm85.91,304.672V172.814h64.85c63.74,0,96.99,40.871,96.99,117.835,0,76.433-33.25,116.773-96.99,116.773h-64.85ZM1855.46,859.371c33.48,0,61.32-11.942,84.19-36.149l-13.92-14.848c-18.23,19.689-41.1,29.372-67.95,29.372-24.85,0-45.07-9.037-61.31-27.112-16.25-17.752-24.2-41.314-24.2-70.363,0-28.727,7.95-52.288,24.2-70.363,15.91-18.075,36.12-27.113,60.98-27.113,26.19,0,48.73,9.683,68.28,29.372l14.26-14.847c-22.87-24.208-50.72-36.15-84.19-36.15-31.16,0-57.01,10.974-77.23,32.6-20.22,21.948-30.5,50.675-30.5,86.5s10.28,64.553,30.83,86.178Q1809.23,859.371,1855.46,859.371ZM2095.43,834.2c14.58-16.461,21.87-38.087,21.87-64.554,0-26.144-7.29-47.769-21.87-64.23-14.92-16.461-34.81-24.853-60.33-24.853s-45.41,8.392-59.99,24.853c-14.92,16.461-22.21,38.086-22.21,64.553s7.29,48.092,22.21,64.553c14.58,16.461,34.47,24.853,59.99,24.853S2080.51,850.979,2095.43,834.2Zm-103.75-12.911c-10.94-11.942-16.24-29.372-16.24-51.965,0-44.865,22.54-69.072,59.66-69.072s59.33,24.207,59.33,69.072c0,22.593-5.3,40.023-15.91,51.965-10.6,12.265-25.19,18.4-43.42,18.4S2002.29,833.55,1991.68,821.285Zm307.58,6.778-44.41-141.371h-21.22l-44.08,141.694L2145.8,686.692h-24.2l55.02,167.515h25.2l42.42-137.821,42.43,137.821h24.86l55.02-167.515h-23.87Zm213.45,6.133c14.58-16.461,21.87-38.087,21.87-64.554,0-26.144-7.29-47.769-21.87-64.23-14.92-16.461-34.81-24.853-60.33-24.853s-45.41,8.392-59.99,24.853c-14.92,16.461-22.21,38.086-22.21,64.553s7.29,48.092,22.21,64.553c14.58,16.461,34.47,24.853,59.99,24.853S2497.79,850.979,2512.71,834.2Zm-103.75-12.911c-10.94-11.942-16.24-29.372-16.24-51.965,0-44.865,22.54-69.072,59.66-69.072s59.33,24.207,59.33,69.072c0,22.593-5.3,40.023-15.91,51.965-10.6,12.265-25.19,18.4-43.42,18.4S2419.57,833.55,2408.96,821.285Zm224.72-138.144q-31.32,0-51.71,32.922l-0.33-29.371h-20.55V854.207h22.21V736.72q18.39-31.953,46.73-31.954a55.492,55.492,0,0,1,22.54,4.842l6.96-20.334A54.417,54.417,0,0,0,2633.68,683.141Zm178.65,171.066-73.92-96.184,67.29-71.331h-27.85l-78.88,83.919V626.334h-21.55V854.207h21.55V796.432l24.19-24.53,61.32,82.3h27.85ZM2847.45,657V626.334h-23.53V657h23.53Zm-0.66,197.21V686.692h-22.54V854.207h22.54Zm178.98-105.544c0-42.606-22.87-68.1-60.99-68.1-22.87,0-45.08,12.588-60.99,33.568l-0.99-27.435h-20.22V854.207h22.54V735.752c15.91-23.239,34.47-34.859,56.01-34.859,28.18,0,42.43,17.752,42.43,53.579v99.735h22.21V748.663Zm158.09-28.4c-11.93-26.467-31.82-39.7-59.99-39.7-20.88,0-38.45,8.069-52.04,24.207s-20.55,38.087-20.55,65.845,6.96,49.383,20.88,65.2c13.59,15.816,31.16,23.562,52.37,23.562,27.84,0,47.4-12.265,59-37.118v23.562c0,41.314-22.21,66.167-58.34,66.167a97.678,97.678,0,0,1-58-18.72l-7.63,17.429c20.89,13.879,42.76,20.98,65.96,20.98,23.87,0,43.09-7.424,57.68-22.594s21.87-36.149,21.87-62.293V686.692h-20.55Zm-55.35,118.778c-33.48,0-54.36-22.916-54.36-68.426,0-45.188,21.21-69.718,54.36-69.718,33.47,0,54.36,24.53,54.36,69.718C3182.87,815.475,3160.66,839.037,3128.51,839.037Zm218.25-816.05a80.774,80.774,0,1,1-80.77,80.774A80.771,80.771,0,0,1,3346.76,22.987Zm-0.26,11a69.515,69.515,0,1,1-69.52,69.515A69.512,69.512,0,0,1,3346.5,33.985Zm9.22,77.135c13.03-1.793,19.49-10.043,19.49-24.749,0-15.782-9.69-25.586-26.54-25.586h-36.35V145.2h8.49V111.718h25.46L3366.6,145.2H3377Zm-7.53-42.325c12.31,0,18.53,5.141,18.53,17.576,0,12.554-6.22,17.336-18.77,17.336h-27.14V68.795h27.38Z"/>
    <text id="Coliving" class="cls-3" transform="translate(2676.868 839.753) scale(7.688)"><tspan x="0">Coliving</tspan></text>
  </g>
</svg>
